# Blender v2.93.4 OBJ File: ''
# www.blender.org
o Cube.002
v 0.800000 -1.000000 0.800000
v 0.800000 -1.000000 1.000000
v 1.000000 -1.000000 1.000000
v 1.000000 -1.000000 0.800000
v -1.000000 -0.800000 0.800000
v -1.000000 -0.800000 1.000000
v -1.000000 -1.000000 1.000000
v -1.000000 -1.000000 0.800000
v -1.000000 -0.800000 -1.000000
v -1.000000 -0.800000 -0.800000
v -1.000000 -1.000000 -0.800000
v -1.000000 -1.000000 -1.000000
v -1.000000 -0.800000 -0.600000
v -1.000000 -1.000000 -0.600000
v -1.000000 -0.800000 -0.400000
v -1.000000 -1.000000 -0.400000
v -1.000000 -0.800000 -0.200000
v -1.000000 -1.000000 -0.200000
v -1.000000 -0.800000 0.000000
v -1.000000 -1.000000 0.000000
v -1.000000 -0.800000 0.200000
v -1.000000 -1.000000 0.200000
v -1.000000 -0.800000 0.400000
v -1.000000 -1.000000 0.400000
v -1.000000 -0.800000 0.600000
v -1.000000 -1.000000 0.600000
v -1.000000 1.000000 -1.000000
v -1.000000 1.000000 -0.800000
v -1.000000 0.800000 -0.800000
v -1.000000 0.800000 -1.000000
v -1.000000 0.600000 -0.800000
v -1.000000 0.600000 -1.000000
v -1.000000 0.400000 -0.800000
v -1.000000 0.400000 -1.000000
v -1.000000 0.200000 -0.800000
v -1.000000 0.200000 -1.000000
v -1.000000 0.000000 -0.800000
v -1.000000 0.000000 -1.000000
v -1.000000 -0.200000 -0.800000
v -1.000000 -0.200000 -1.000000
v -1.000000 -0.400000 -0.800000
v -1.000000 -0.400000 -1.000000
v -1.000000 -0.600000 -0.800000
v -1.000000 -0.600000 -1.000000
v -1.000000 1.000000 -0.600000
v -1.000000 0.800000 -0.600000
v -1.000000 0.600000 -0.600000
v -1.000000 0.400000 -0.600000
v -1.000000 0.200000 -0.600000
v -1.000000 0.000000 -0.600000
v -1.000000 -0.200000 -0.600000
v -1.000000 -0.400000 -0.600000
v -1.000000 -0.600000 -0.600000
v -1.000000 1.000000 -0.400000
v -1.000000 0.800000 -0.400000
v -1.000000 0.600000 -0.400000
v -1.000000 0.400000 -0.400000
v -1.000000 0.200000 -0.400000
v -1.000000 0.000000 -0.400000
v -1.000000 -0.200000 -0.400000
v -1.000000 -0.400000 -0.400000
v -1.000000 -0.600000 -0.400000
v -1.000000 1.000000 -0.200000
v -1.000000 0.800000 -0.200000
v -1.000000 0.600000 -0.200000
v -1.000000 0.400000 -0.200000
v -1.000000 0.200000 -0.200000
v -1.000000 0.000000 -0.200000
v -1.000000 -0.200000 -0.200000
v -1.000000 -0.400000 -0.200000
v -1.000000 -0.600000 -0.200000
v -1.000000 1.000000 0.000000
v -1.000000 0.800000 0.000000
v -1.000000 0.600000 0.000000
v -1.000000 0.400000 0.000000
v -1.000000 0.200000 0.000000
v -1.000000 0.000000 0.000000
v -1.000000 -0.200000 0.000000
v -1.000000 -0.400000 0.000000
v -1.000000 -0.600000 0.000000
v -1.000000 1.000000 0.200000
v -1.000000 0.800000 0.200000
v -1.000000 0.600000 0.200000
v -1.000000 0.400000 0.200000
v -1.000000 0.200000 0.200000
v -1.000000 0.000000 0.200000
v -1.000000 -0.200000 0.200000
v -1.000000 -0.400000 0.200000
v -1.000000 -0.600000 0.200000
v -1.000000 1.000000 0.400000
v -1.000000 0.800000 0.400000
v -1.000000 0.600000 0.400000
v -1.000000 0.400000 0.400000
v -1.000000 0.200000 0.400000
v -1.000000 0.000000 0.400000
v -1.000000 -0.200000 0.400000
v -1.000000 -0.400000 0.400000
v -1.000000 -0.600000 0.400000
v -1.000000 1.000000 0.600000
v -1.000000 0.800000 0.600000
v -1.000000 0.600000 0.600000
v -1.000000 0.400000 0.600000
v -1.000000 0.200000 0.600000
v -1.000000 0.000000 0.600000
v -1.000000 -0.200000 0.600000
v -1.000000 -0.400000 0.600000
v -1.000000 -0.600000 0.600000
v -1.000000 1.000000 0.800000
v -1.000000 0.800000 0.800000
v -1.000000 0.600000 0.800000
v -1.000000 0.400000 0.800000
v -1.000000 0.200000 0.800000
v -1.000000 0.000000 0.800000
v -1.000000 -0.200000 0.800000
v -1.000000 -0.400000 0.800000
v -1.000000 -0.600000 0.800000
v -1.000000 1.000000 1.000000
v -1.000000 0.800000 1.000000
v -1.000000 0.600000 1.000000
v -1.000000 0.400000 1.000000
v -1.000000 0.200000 1.000000
v -1.000000 0.000000 1.000000
v -1.000000 -0.200000 1.000000
v -1.000000 -0.400000 1.000000
v -1.000000 -0.600000 1.000000
v 0.800000 -1.000000 -1.000000
v 0.800000 -1.000000 -0.800000
v 1.000000 -1.000000 -0.800000
v 1.000000 -1.000000 -1.000000
v 0.800000 -1.000000 -0.600000
v 1.000000 -1.000000 -0.600000
v 0.800000 -1.000000 -0.400000
v 1.000000 -1.000000 -0.400000
v 0.800000 -1.000000 -0.200000
v 1.000000 -1.000000 -0.200000
v 0.800000 -1.000000 0.000000
v 1.000000 -1.000000 0.000000
v 0.800000 -1.000000 0.200000
v 1.000000 -1.000000 0.200000
v 0.800000 -1.000000 0.400000
v 1.000000 -1.000000 0.400000
v 0.800000 -1.000000 0.600000
v 1.000000 -1.000000 0.600000
v -0.800000 -1.000000 -0.800000
v -0.800000 -1.000000 -1.000000
v -0.600000 -1.000000 -0.800000
v -0.600000 -1.000000 -1.000000
v -0.400000 -1.000000 -0.800000
v -0.400000 -1.000000 -1.000000
v -0.200000 -1.000000 -0.800000
v -0.200000 -1.000000 -1.000000
v 0.000000 -1.000000 -0.800000
v 0.000000 -1.000000 -1.000000
v 0.200000 -1.000000 -0.800000
v 0.200000 -1.000000 -1.000000
v 0.400000 -1.000000 -0.800000
v 0.400000 -1.000000 -1.000000
v 0.600000 -1.000000 -0.800000
v 0.600000 -1.000000 -1.000000
v -0.800000 -1.000000 -0.600000
v -0.600000 -1.000000 -0.600000
v -0.400000 -1.000000 -0.600000
v -0.200000 -1.000000 -0.600000
v 0.000000 -1.000000 -0.600000
v 0.200000 -1.000000 -0.600000
v 0.400000 -1.000000 -0.600000
v 0.600000 -1.000000 -0.600000
v -0.800000 -1.000000 -0.400000
v -0.600000 -1.000000 -0.400000
v -0.400000 -1.000000 -0.400000
v -0.200000 -1.000000 -0.400000
v 0.000000 -1.000000 -0.400000
v 0.200000 -1.000000 -0.400000
v 0.400000 -1.000000 -0.400000
v 0.600000 -1.000000 -0.400000
v -0.800000 -1.000000 -0.200000
v -0.600000 -1.000000 -0.200000
v -0.400000 -1.000000 -0.200000
v -0.200000 -1.000000 -0.200000
v 0.000000 -1.000000 -0.200000
v 0.200000 -1.000000 -0.200000
v 0.400000 -1.000000 -0.200000
v 0.600000 -1.000000 -0.200000
v -0.800000 -1.000000 0.000000
v -0.600000 -1.000000 0.000000
v -0.400000 -1.000000 0.000000
v -0.200000 -1.000000 0.000000
v 0.000000 -1.000000 0.000000
v 0.200000 -1.000000 0.000000
v 0.400000 -1.000000 0.000000
v 0.600000 -1.000000 0.000000
v -0.800000 -1.000000 0.200000
v -0.600000 -1.000000 0.200000
v -0.400000 -1.000000 0.200000
v -0.200000 -1.000000 0.200000
v 0.000000 -1.000000 0.200000
v 0.200000 -1.000000 0.200000
v 0.400000 -1.000000 0.200000
v 0.600000 -1.000000 0.200000
v -0.800000 -1.000000 0.400000
v -0.600000 -1.000000 0.400000
v -0.400000 -1.000000 0.400000
v -0.200000 -1.000000 0.400000
v 0.000000 -1.000000 0.400000
v 0.200000 -1.000000 0.400000
v 0.400000 -1.000000 0.400000
v 0.600000 -1.000000 0.400000
v -0.800000 -1.000000 0.600000
v -0.600000 -1.000000 0.600000
v -0.400000 -1.000000 0.600000
v -0.200000 -1.000000 0.600000
v 0.000000 -1.000000 0.600000
v 0.200000 -1.000000 0.600000
v 0.400000 -1.000000 0.600000
v 0.600000 -1.000000 0.600000
v -0.800000 -1.000000 0.800000
v -0.600000 -1.000000 0.800000
v -0.400000 -1.000000 0.800000
v -0.200000 -1.000000 0.800000
v 0.000000 -1.000000 0.800000
v 0.200000 -1.000000 0.800000
v 0.400000 -1.000000 0.800000
v 0.600000 -1.000000 0.800000
v -0.800000 -1.000000 1.000000
v -0.600000 -1.000000 1.000000
v -0.400000 -1.000000 1.000000
v -0.200000 -1.000000 1.000000
v 0.000000 -1.000000 1.000000
v 0.200000 -1.000000 1.000000
v 0.400000 -1.000000 1.000000
v 0.600000 -1.000000 1.000000
vt 0.857388 0.677738
vt 0.857388 0.711029
vt 0.875000 0.695913
vt 0.875000 0.663868
vt 0.607388 0.677738
vt 0.607388 0.711029
vt 0.625000 0.695913
vt 0.625000 0.663868
vt 0.607388 0.288971
vt 0.607388 0.322262
vt 0.625000 0.336132
vt 0.625000 0.304087
vt 0.607388 0.360533
vt 0.625000 0.372279
vt 0.607388 0.403633
vt 0.625000 0.412260
vt 0.607388 0.450687
vt 0.625000 0.455281
vt 0.607388 0.500000
vt 0.625000 0.500000
vt 0.607388 0.549313
vt 0.625000 0.544719
vt 0.607388 0.596367
vt 0.625000 0.587740
vt 0.607388 0.639467
vt 0.625000 0.627721
vt 0.375000 0.304087
vt 0.375000 0.336132
vt 0.392612 0.322262
vt 0.392612 0.288971
vt 0.413990 0.308612
vt 0.413990 0.274373
vt 0.439441 0.296643
vt 0.439441 0.261800
vt 0.468583 0.288262
vt 0.468583 0.253121
vt 0.500000 0.285223
vt 0.500000 0.250000
vt 0.531416 0.288262
vt 0.531416 0.253121
vt 0.560559 0.296643
vt 0.560559 0.261800
vt 0.586010 0.308612
vt 0.586010 0.274373
vt 0.375000 0.372279
vt 0.392612 0.360533
vt 0.413990 0.348746
vt 0.439440 0.338214
vt 0.468583 0.330720
vt 0.500000 0.327979
vt 0.531416 0.330720
vt 0.560559 0.338213
vt 0.586010 0.348746
vt 0.375000 0.412260
vt 0.392612 0.403633
vt 0.413990 0.394823
vt 0.439441 0.386808
vt 0.468583 0.381018
vt 0.500000 0.378881
vt 0.531416 0.381018
vt 0.560559 0.386808
vt 0.586010 0.394823
vt 0.375000 0.455281
vt 0.392612 0.450687
vt 0.413990 0.445936
vt 0.439441 0.441557
vt 0.468583 0.438357
vt 0.500000 0.437167
vt 0.531416 0.438357
vt 0.560559 0.441557
vt 0.586010 0.445936
vt 0.375000 0.500000
vt 0.392612 0.500000
vt 0.413990 0.500000
vt 0.439441 0.500000
vt 0.468583 0.500000
vt 0.500000 0.500000
vt 0.531416 0.500000
vt 0.560559 0.500000
vt 0.586010 0.500000
vt 0.375000 0.544719
vt 0.392612 0.549313
vt 0.413990 0.554064
vt 0.439441 0.558443
vt 0.468584 0.561643
vt 0.500000 0.562833
vt 0.531416 0.561643
vt 0.560559 0.558443
vt 0.586010 0.554064
vt 0.375000 0.587740
vt 0.392612 0.596367
vt 0.413990 0.605177
vt 0.439441 0.613192
vt 0.468584 0.618982
vt 0.500000 0.621119
vt 0.531416 0.618982
vt 0.560559 0.613192
vt 0.586010 0.605177
vt 0.375000 0.627721
vt 0.392612 0.639467
vt 0.413990 0.651253
vt 0.439441 0.661786
vt 0.468584 0.669280
vt 0.500000 0.672021
vt 0.531416 0.669280
vt 0.560559 0.661786
vt 0.586010 0.651253
vt 0.375000 0.663868
vt 0.392612 0.677738
vt 0.413990 0.691388
vt 0.439441 0.703357
vt 0.468584 0.711738
vt 0.500000 0.714777
vt 0.531416 0.711738
vt 0.560560 0.703357
vt 0.586010 0.691388
vt 0.375000 0.695913
vt 0.392612 0.711029
vt 0.413990 0.725627
vt 0.439441 0.738200
vt 0.468584 0.746879
vt 0.500000 0.750000
vt 0.531416 0.746879
vt 0.560560 0.738200
vt 0.586010 0.725627
vt 0.857388 0.288971
vt 0.857388 0.322262
vt 0.875000 0.336132
vt 0.875000 0.304087
vt 0.857388 0.360533
vt 0.875000 0.372279
vt 0.857388 0.403633
vt 0.875000 0.412260
vt 0.857388 0.450687
vt 0.875000 0.455281
vt 0.857388 0.500000
vt 0.875000 0.500000
vt 0.857388 0.549313
vt 0.875000 0.544719
vt 0.857388 0.596367
vt 0.875000 0.587740
vt 0.857388 0.639467
vt 0.875000 0.627721
vt 0.642612 0.322262
vt 0.642612 0.288971
vt 0.663990 0.308612
vt 0.663990 0.274373
vt 0.689440 0.296643
vt 0.689440 0.261800
vt 0.718583 0.288262
vt 0.718583 0.253121
vt 0.750000 0.285223
vt 0.750000 0.250000
vt 0.781416 0.288262
vt 0.781416 0.253121
vt 0.810559 0.296643
vt 0.810559 0.261800
vt 0.836010 0.308612
vt 0.836010 0.274373
vt 0.642612 0.360533
vt 0.663990 0.348746
vt 0.689440 0.338214
vt 0.718584 0.330720
vt 0.750000 0.327979
vt 0.781416 0.330720
vt 0.810559 0.338214
vt 0.836010 0.348747
vt 0.642612 0.403633
vt 0.663990 0.394823
vt 0.689440 0.386808
vt 0.718584 0.381018
vt 0.750000 0.378881
vt 0.781416 0.381018
vt 0.810559 0.386808
vt 0.836010 0.394823
vt 0.642612 0.450687
vt 0.663990 0.445936
vt 0.689440 0.441557
vt 0.718584 0.438357
vt 0.750000 0.437167
vt 0.781416 0.438357
vt 0.810559 0.441557
vt 0.836010 0.445936
vt 0.642612 0.500000
vt 0.663990 0.500000
vt 0.689440 0.500000
vt 0.718584 0.500000
vt 0.750000 0.500000
vt 0.781416 0.500000
vt 0.810559 0.500000
vt 0.836010 0.500000
vt 0.642612 0.549313
vt 0.663990 0.554064
vt 0.689441 0.558443
vt 0.718584 0.561643
vt 0.750000 0.562833
vt 0.781416 0.561643
vt 0.810559 0.558443
vt 0.836010 0.554064
vt 0.642612 0.596367
vt 0.663990 0.605177
vt 0.689441 0.613192
vt 0.718584 0.618982
vt 0.750000 0.621119
vt 0.781416 0.618982
vt 0.810559 0.613192
vt 0.836010 0.605177
vt 0.642612 0.639467
vt 0.663990 0.651253
vt 0.689441 0.661786
vt 0.718584 0.669280
vt 0.750000 0.672021
vt 0.781416 0.669280
vt 0.810559 0.661786
vt 0.836010 0.651253
vt 0.642612 0.677738
vt 0.663990 0.691388
vt 0.689441 0.703357
vt 0.718584 0.711738
vt 0.750000 0.714777
vt 0.781416 0.711738
vt 0.810559 0.703357
vt 0.836010 0.691388
vt 0.642612 0.711029
vt 0.663990 0.725627
vt 0.689441 0.738200
vt 0.718584 0.746879
vt 0.750000 0.750000
vt 0.781416 0.746879
vt 0.810559 0.738200
vt 0.836010 0.725627
vn 0.0000 1.0000 0.0000
vn 1.0000 0.0000 0.0000
s 1
f 1/1/1 2/2/1 3/3/1 4/4/1
f 5/5/2 6/6/2 7/7/2 8/8/2
f 9/9/2 10/10/2 11/11/2 12/12/2
f 10/10/2 13/13/2 14/14/2 11/11/2
f 13/13/2 15/15/2 16/16/2 14/14/2
f 15/15/2 17/17/2 18/18/2 16/16/2
f 17/17/2 19/19/2 20/20/2 18/18/2
f 19/19/2 21/21/2 22/22/2 20/20/2
f 21/21/2 23/23/2 24/24/2 22/22/2
f 23/23/2 25/25/2 26/26/2 24/24/2
f 25/25/2 5/5/2 8/8/2 26/26/2
f 27/27/2 28/28/2 29/29/2 30/30/2
f 30/30/2 29/29/2 31/31/2 32/32/2
f 32/32/2 31/31/2 33/33/2 34/34/2
f 34/34/2 33/33/2 35/35/2 36/36/2
f 36/36/2 35/35/2 37/37/2 38/38/2
f 38/38/2 37/37/2 39/39/2 40/40/2
f 40/40/2 39/39/2 41/41/2 42/42/2
f 42/42/2 41/41/2 43/43/2 44/44/2
f 44/44/2 43/43/2 10/10/2 9/9/2
f 28/28/2 45/45/2 46/46/2 29/29/2
f 29/29/2 46/46/2 47/47/2 31/31/2
f 31/31/2 47/47/2 48/48/2 33/33/2
f 33/33/2 48/48/2 49/49/2 35/35/2
f 35/35/2 49/49/2 50/50/2 37/37/2
f 37/37/2 50/50/2 51/51/2 39/39/2
f 39/39/2 51/51/2 52/52/2 41/41/2
f 41/41/2 52/52/2 53/53/2 43/43/2
f 43/43/2 53/53/2 13/13/2 10/10/2
f 45/45/2 54/54/2 55/55/2 46/46/2
f 46/46/2 55/55/2 56/56/2 47/47/2
f 47/47/2 56/56/2 57/57/2 48/48/2
f 48/48/2 57/57/2 58/58/2 49/49/2
f 49/49/2 58/58/2 59/59/2 50/50/2
f 50/50/2 59/59/2 60/60/2 51/51/2
f 51/51/2 60/60/2 61/61/2 52/52/2
f 52/52/2 61/61/2 62/62/2 53/53/2
f 53/53/2 62/62/2 15/15/2 13/13/2
f 54/54/2 63/63/2 64/64/2 55/55/2
f 55/55/2 64/64/2 65/65/2 56/56/2
f 56/56/2 65/65/2 66/66/2 57/57/2
f 57/57/2 66/66/2 67/67/2 58/58/2
f 58/58/2 67/67/2 68/68/2 59/59/2
f 59/59/2 68/68/2 69/69/2 60/60/2
f 60/60/2 69/69/2 70/70/2 61/61/2
f 61/61/2 70/70/2 71/71/2 62/62/2
f 62/62/2 71/71/2 17/17/2 15/15/2
f 63/63/2 72/72/2 73/73/2 64/64/2
f 64/64/2 73/73/2 74/74/2 65/65/2
f 65/65/2 74/74/2 75/75/2 66/66/2
f 66/66/2 75/75/2 76/76/2 67/67/2
f 67/67/2 76/76/2 77/77/2 68/68/2
f 68/68/2 77/77/2 78/78/2 69/69/2
f 69/69/2 78/78/2 79/79/2 70/70/2
f 70/70/2 79/79/2 80/80/2 71/71/2
f 71/71/2 80/80/2 19/19/2 17/17/2
f 72/72/2 81/81/2 82/82/2 73/73/2
f 73/73/2 82/82/2 83/83/2 74/74/2
f 74/74/2 83/83/2 84/84/2 75/75/2
f 75/75/2 84/84/2 85/85/2 76/76/2
f 76/76/2 85/85/2 86/86/2 77/77/2
f 77/77/2 86/86/2 87/87/2 78/78/2
f 78/78/2 87/87/2 88/88/2 79/79/2
f 79/79/2 88/88/2 89/89/2 80/80/2
f 80/80/2 89/89/2 21/21/2 19/19/2
f 81/81/2 90/90/2 91/91/2 82/82/2
f 82/82/2 91/91/2 92/92/2 83/83/2
f 83/83/2 92/92/2 93/93/2 84/84/2
f 84/84/2 93/93/2 94/94/2 85/85/2
f 85/85/2 94/94/2 95/95/2 86/86/2
f 86/86/2 95/95/2 96/96/2 87/87/2
f 87/87/2 96/96/2 97/97/2 88/88/2
f 88/88/2 97/97/2 98/98/2 89/89/2
f 89/89/2 98/98/2 23/23/2 21/21/2
f 90/90/2 99/99/2 100/100/2 91/91/2
f 91/91/2 100/100/2 101/101/2 92/92/2
f 92/92/2 101/101/2 102/102/2 93/93/2
f 93/93/2 102/102/2 103/103/2 94/94/2
f 94/94/2 103/103/2 104/104/2 95/95/2
f 95/95/2 104/104/2 105/105/2 96/96/2
f 96/96/2 105/105/2 106/106/2 97/97/2
f 97/97/2 106/106/2 107/107/2 98/98/2
f 98/98/2 107/107/2 25/25/2 23/23/2
f 99/99/2 108/108/2 109/109/2 100/100/2
f 100/100/2 109/109/2 110/110/2 101/101/2
f 101/101/2 110/110/2 111/111/2 102/102/2
f 102/102/2 111/111/2 112/112/2 103/103/2
f 103/103/2 112/112/2 113/113/2 104/104/2
f 104/104/2 113/113/2 114/114/2 105/105/2
f 105/105/2 114/114/2 115/115/2 106/106/2
f 106/106/2 115/115/2 116/116/2 107/107/2
f 107/107/2 116/116/2 5/5/2 25/25/2
f 108/108/2 117/117/2 118/118/2 109/109/2
f 109/109/2 118/118/2 119/119/2 110/110/2
f 110/110/2 119/119/2 120/120/2 111/111/2
f 111/111/2 120/120/2 121/121/2 112/112/2
f 112/112/2 121/121/2 122/122/2 113/113/2
f 113/113/2 122/122/2 123/123/2 114/114/2
f 114/114/2 123/123/2 124/124/2 115/115/2
f 115/115/2 124/124/2 125/125/2 116/116/2
f 116/116/2 125/125/2 6/6/2 5/5/2
f 126/126/1 127/127/1 128/128/1 129/129/1
f 127/127/1 130/130/1 131/131/1 128/128/1
f 130/130/1 132/132/1 133/133/1 131/131/1
f 132/132/1 134/134/1 135/135/1 133/133/1
f 134/134/1 136/136/1 137/137/1 135/135/1
f 136/136/1 138/138/1 139/139/1 137/137/1
f 138/138/1 140/140/1 141/141/1 139/139/1
f 140/140/1 142/142/1 143/143/1 141/141/1
f 142/142/1 1/1/1 4/4/1 143/143/1
f 12/12/1 11/11/1 144/144/1 145/145/1
f 145/145/1 144/144/1 146/146/1 147/147/1
f 147/147/1 146/146/1 148/148/1 149/149/1
f 149/149/1 148/148/1 150/150/1 151/151/1
f 151/151/1 150/150/1 152/152/1 153/153/1
f 153/153/1 152/152/1 154/154/1 155/155/1
f 155/155/1 154/154/1 156/156/1 157/157/1
f 157/157/1 156/156/1 158/158/1 159/159/1
f 159/159/1 158/158/1 127/127/1 126/126/1
f 11/11/1 14/14/1 160/160/1 144/144/1
f 144/144/1 160/160/1 161/161/1 146/146/1
f 146/146/1 161/161/1 162/162/1 148/148/1
f 148/148/1 162/162/1 163/163/1 150/150/1
f 150/150/1 163/163/1 164/164/1 152/152/1
f 152/152/1 164/164/1 165/165/1 154/154/1
f 154/154/1 165/165/1 166/166/1 156/156/1
f 156/156/1 166/166/1 167/167/1 158/158/1
f 158/158/1 167/167/1 130/130/1 127/127/1
f 14/14/1 16/16/1 168/168/1 160/160/1
f 160/160/1 168/168/1 169/169/1 161/161/1
f 161/161/1 169/169/1 170/170/1 162/162/1
f 162/162/1 170/170/1 171/171/1 163/163/1
f 163/163/1 171/171/1 172/172/1 164/164/1
f 164/164/1 172/172/1 173/173/1 165/165/1
f 165/165/1 173/173/1 174/174/1 166/166/1
f 166/166/1 174/174/1 175/175/1 167/167/1
f 167/167/1 175/175/1 132/132/1 130/130/1
f 16/16/1 18/18/1 176/176/1 168/168/1
f 168/168/1 176/176/1 177/177/1 169/169/1
f 169/169/1 177/177/1 178/178/1 170/170/1
f 170/170/1 178/178/1 179/179/1 171/171/1
f 171/171/1 179/179/1 180/180/1 172/172/1
f 172/172/1 180/180/1 181/181/1 173/173/1
f 173/173/1 181/181/1 182/182/1 174/174/1
f 174/174/1 182/182/1 183/183/1 175/175/1
f 175/175/1 183/183/1 134/134/1 132/132/1
f 18/18/1 20/20/1 184/184/1 176/176/1
f 176/176/1 184/184/1 185/185/1 177/177/1
f 177/177/1 185/185/1 186/186/1 178/178/1
f 178/178/1 186/186/1 187/187/1 179/179/1
f 179/179/1 187/187/1 188/188/1 180/180/1
f 180/180/1 188/188/1 189/189/1 181/181/1
f 181/181/1 189/189/1 190/190/1 182/182/1
f 182/182/1 190/190/1 191/191/1 183/183/1
f 183/183/1 191/191/1 136/136/1 134/134/1
f 20/20/1 22/22/1 192/192/1 184/184/1
f 184/184/1 192/192/1 193/193/1 185/185/1
f 185/185/1 193/193/1 194/194/1 186/186/1
f 186/186/1 194/194/1 195/195/1 187/187/1
f 187/187/1 195/195/1 196/196/1 188/188/1
f 188/188/1 196/196/1 197/197/1 189/189/1
f 189/189/1 197/197/1 198/198/1 190/190/1
f 190/190/1 198/198/1 199/199/1 191/191/1
f 191/191/1 199/199/1 138/138/1 136/136/1
f 22/22/1 24/24/1 200/200/1 192/192/1
f 192/192/1 200/200/1 201/201/1 193/193/1
f 193/193/1 201/201/1 202/202/1 194/194/1
f 194/194/1 202/202/1 203/203/1 195/195/1
f 195/195/1 203/203/1 204/204/1 196/196/1
f 196/196/1 204/204/1 205/205/1 197/197/1
f 197/197/1 205/205/1 206/206/1 198/198/1
f 198/198/1 206/206/1 207/207/1 199/199/1
f 199/199/1 207/207/1 140/140/1 138/138/1
f 24/24/1 26/26/1 208/208/1 200/200/1
f 200/200/1 208/208/1 209/209/1 201/201/1
f 201/201/1 209/209/1 210/210/1 202/202/1
f 202/202/1 210/210/1 211/211/1 203/203/1
f 203/203/1 211/211/1 212/212/1 204/204/1
f 204/204/1 212/212/1 213/213/1 205/205/1
f 205/205/1 213/213/1 214/214/1 206/206/1
f 206/206/1 214/214/1 215/215/1 207/207/1
f 207/207/1 215/215/1 142/142/1 140/140/1
f 26/26/1 8/8/1 216/216/1 208/208/1
f 208/208/1 216/216/1 217/217/1 209/209/1
f 209/209/1 217/217/1 218/218/1 210/210/1
f 210/210/1 218/218/1 219/219/1 211/211/1
f 211/211/1 219/219/1 220/220/1 212/212/1
f 212/212/1 220/220/1 221/221/1 213/213/1
f 213/213/1 221/221/1 222/222/1 214/214/1
f 214/214/1 222/222/1 223/223/1 215/215/1
f 215/215/1 223/223/1 1/1/1 142/142/1
f 8/8/1 7/7/1 224/224/1 216/216/1
f 216/216/1 224/224/1 225/225/1 217/217/1
f 217/217/1 225/225/1 226/226/1 218/218/1
f 218/218/1 226/226/1 227/227/1 219/219/1
f 219/219/1 227/227/1 228/228/1 220/220/1
f 220/220/1 228/228/1 229/229/1 221/221/1
f 221/221/1 229/229/1 230/230/1 222/222/1
f 222/222/1 230/230/1 231/231/1 223/223/1
f 223/223/1 231/231/1 2/2/1 1/1/1
