# Blender v2.76 (sub 0) OBJ File: ''
# www.blender.org
o Cylinder
v 0.000000 0.076693 -0.997014
v 0.000000 0.076693 0.997014
v 0.014962 0.075220 -0.997014
v 0.014962 0.075220 0.997014
v 0.029349 0.070855 -0.997014
v 0.029349 0.070855 0.997014
v 0.042609 0.063768 -0.997014
v 0.042609 0.063768 0.997014
v 0.054230 0.054230 -0.997014
v 0.054230 0.054230 0.997014
v 0.063768 0.042609 -0.997014
v 0.063768 0.042609 0.997014
v 0.070855 0.029349 -0.997014
v 0.070855 0.029349 0.997014
v 0.075220 0.014962 -0.997014
v 0.075220 0.014962 0.997014
v 0.076693 0.000000 -0.997014
v 0.076693 0.000000 0.997014
v 0.075220 -0.014962 -0.997014
v 0.075220 -0.014962 0.997014
v 0.070855 -0.029349 -0.997014
v 0.070855 -0.029349 0.997014
v 0.063768 -0.042609 -0.997014
v 0.063768 -0.042609 0.997014
v 0.054230 -0.054230 -0.997014
v 0.054230 -0.054230 0.997014
v 0.042609 -0.063768 -0.997014
v 0.042609 -0.063768 0.997014
v 0.029349 -0.070855 -0.997014
v 0.029349 -0.070855 0.997014
v 0.014962 -0.075220 -0.997014
v 0.014962 -0.075220 0.997014
v -0.000000 -0.076693 -0.997014
v -0.000000 -0.076693 0.997014
v -0.014962 -0.075220 -0.997014
v -0.014962 -0.075220 0.997014
v -0.029349 -0.070855 -0.997014
v -0.029349 -0.070855 0.997014
v -0.042609 -0.063768 -0.997014
v -0.042609 -0.063768 0.997014
v -0.054230 -0.054230 -0.997014
v -0.054230 -0.054230 0.997014
v -0.063768 -0.042608 -0.997014
v -0.063768 -0.042608 0.997014
v -0.070855 -0.029349 -0.997014
v -0.070855 -0.029349 0.997014
v -0.075220 -0.014962 -0.997014
v -0.075220 -0.014962 0.997014
v -0.076693 0.000000 -0.997014
v -0.076693 0.000000 0.997014
v -0.075220 0.014962 -0.997014
v -0.075220 0.014962 0.997014
v -0.070855 0.029349 -0.997014
v -0.070855 0.029349 0.997014
v -0.063768 0.042609 -0.997014
v -0.063768 0.042609 0.997014
v -0.054230 0.054230 -0.997014
v -0.054230 0.054230 0.997014
v -0.042608 0.063768 -0.997014
v -0.042608 0.063768 0.997014
v -0.029349 0.070855 -0.997014
v -0.029349 0.070855 0.997014
v -0.014962 0.075220 -0.997014
v -0.014962 0.075220 0.997014
v -0.000000 0.997014 0.076693
v 0.000000 -0.997014 0.076693
v 0.014962 0.997014 0.075220
v 0.014962 -0.997014 0.075220
v 0.029349 0.997014 0.070855
v 0.029349 -0.997014 0.070855
v 0.042609 0.997014 0.063768
v 0.042609 -0.997014 0.063768
v 0.054230 0.997014 0.054230
v 0.054230 -0.997014 0.054230
v 0.063768 0.997014 0.042608
v 0.063768 -0.997014 0.042609
v 0.070855 0.997014 0.029349
v 0.070855 -0.997014 0.029349
v 0.075220 0.997014 0.014962
v 0.075220 -0.997014 0.014962
v 0.076693 0.997014 -0.000000
v 0.076693 -0.997014 0.000000
v 0.075220 0.997014 -0.014962
v 0.075220 -0.997014 -0.014962
v 0.070855 0.997014 -0.029349
v 0.070855 -0.997014 -0.029349
v 0.063768 0.997014 -0.042609
v 0.063768 -0.997014 -0.042608
v 0.054230 0.997014 -0.054230
v 0.054230 -0.997014 -0.054230
v 0.042609 0.997014 -0.063768
v 0.042609 -0.997014 -0.063768
v 0.029349 0.997014 -0.070855
v 0.029349 -0.997014 -0.070855
v 0.014962 0.997014 -0.075220
v 0.014962 -0.997014 -0.075220
v -0.000000 0.997014 -0.076693
v -0.000000 -0.997014 -0.076693
v -0.014962 0.997014 -0.075220
v -0.014962 -0.997014 -0.075220
v -0.029349 0.997014 -0.070855
v -0.029349 -0.997014 -0.070855
v -0.042609 0.997014 -0.063768
v -0.042609 -0.997014 -0.063768
v -0.054230 0.997014 -0.054230
v -0.054230 -0.997014 -0.054230
v -0.063768 0.997014 -0.042609
v -0.063768 -0.997014 -0.042608
v -0.070855 0.997014 -0.029349
v -0.070855 -0.997014 -0.029349
v -0.075220 0.997014 -0.014962
v -0.075220 -0.997014 -0.014962
v -0.076693 0.997014 0.000000
v -0.076693 -0.997014 0.000000
v -0.075220 0.997014 0.014962
v -0.075220 -0.997014 0.014962
v -0.070855 0.997014 0.029349
v -0.070855 -0.997014 0.029349
v -0.063768 0.997014 0.042609
v -0.063768 -0.997014 0.042609
v -0.054230 0.997014 0.054230
v -0.054230 -0.997014 0.054231
v -0.042608 0.997014 0.063768
v -0.042608 -0.997014 0.063768
v -0.029349 0.997014 0.070855
v -0.029349 -0.997014 0.070856
v -0.014962 0.997014 0.075220
v -0.014962 -0.997014 0.075220
v 0.997014 0.000000 0.076693
v -0.997014 -0.000000 0.076693
v 0.997014 -0.014962 0.075220
v -0.997014 -0.014962 0.075220
v 0.997014 -0.029349 0.070855
v -0.997014 -0.029349 0.070855
v 0.997014 -0.042608 0.063768
v -0.997014 -0.042609 0.063768
v 0.997014 -0.054230 0.054230
v -0.997014 -0.054230 0.054230
v 0.997014 -0.063768 0.042608
v -0.997014 -0.063768 0.042609
v 0.997014 -0.070855 0.029349
v -0.997014 -0.070855 0.029349
v 0.997014 -0.075220 0.014962
v -0.997014 -0.075220 0.014962
v 0.997014 -0.076693 -0.000000
v -0.997014 -0.076693 0.000000
v 0.997014 -0.075220 -0.014962
v -0.997014 -0.075220 -0.014962
v 0.997014 -0.070855 -0.029349
v -0.997014 -0.070855 -0.029349
v 0.997014 -0.063768 -0.042609
v -0.997014 -0.063768 -0.042608
v 0.997014 -0.054230 -0.054230
v -0.997014 -0.054230 -0.054230
v 0.997014 -0.042608 -0.063768
v -0.997014 -0.042609 -0.063768
v 0.997014 -0.029349 -0.070855
v -0.997014 -0.029349 -0.070855
v 0.997014 -0.014962 -0.075220
v -0.997014 -0.014962 -0.075220
v 0.997014 0.000000 -0.076693
v -0.997014 -0.000000 -0.076693
v 0.997014 0.014962 -0.075220
v -0.997014 0.014962 -0.075220
v 0.997014 0.029349 -0.070855
v -0.997014 0.029349 -0.070855
v 0.997014 0.042609 -0.063768
v -0.997014 0.042608 -0.063768
v 0.997014 0.054231 -0.054230
v -0.997014 0.054230 -0.054230
v 0.997014 0.063768 -0.042609
v -0.997014 0.063768 -0.042608
v 0.997014 0.070855 -0.029349
v -0.997014 0.070855 -0.029349
v 0.997014 0.075220 -0.014962
v -0.997014 0.075220 -0.014962
v 0.997014 0.076693 0.000000
v -0.997014 0.076693 0.000000
v 0.997014 0.075220 0.014962
v -0.997014 0.075220 0.014962
v 0.997014 0.070855 0.029349
v -0.997014 0.070855 0.029349
v 0.997014 0.063768 0.042609
v -0.997014 0.063768 0.042609
v 0.997014 0.054230 0.054230
v -0.997014 0.054230 0.054231
v 0.997014 0.042608 0.063768
v -0.997014 0.042608 0.063768
v 0.997014 0.029349 0.070855
v -0.997014 0.029349 0.070856
v 0.997014 0.014962 0.075220
v -0.997014 0.014962 0.075220
vn -0.098000 -0.995200 0.000000
vn -0.290300 -0.956900 0.000000
vn -0.471400 -0.881900 0.000000
vn -0.634400 -0.773000 0.000000
vn -0.773000 -0.634400 0.000000
vn -0.881900 -0.471400 0.000000
vn -0.956900 -0.290300 0.000000
vn -0.995200 -0.098000 0.000000
vn -0.995200 0.098000 0.000000
vn -0.956900 0.290300 0.000000
vn -0.881900 0.471400 0.000000
vn -0.773000 0.634400 0.000000
vn -0.634400 0.773000 0.000000
vn -0.471400 0.881900 0.000000
vn -0.290300 0.956900 0.000000
vn -0.098000 0.995200 0.000000
vn 0.098000 0.995200 0.000000
vn 0.290300 0.956900 0.000000
vn 0.471400 0.881900 0.000000
vn 0.634400 0.773000 0.000000
vn 0.773000 0.634400 0.000000
vn 0.881900 0.471400 0.000000
vn 0.956900 0.290300 0.000000
vn 0.995200 0.098000 0.000000
vn 0.995200 -0.098000 0.000000
vn 0.956900 -0.290300 0.000000
vn 0.881900 -0.471400 0.000000
vn 0.773000 -0.634400 0.000000
vn 0.634400 -0.773000 0.000000
vn 0.471400 -0.881900 0.000000
vn 0.000000 0.000000 -1.000000
vn 0.098000 -0.995200 0.000000
vn 0.290300 -0.956900 0.000000
vn -0.000000 0.000000 1.000000
vn -0.098000 -0.000000 -0.995200
vn -0.290300 -0.000000 -0.956900
vn -0.471400 -0.000000 -0.881900
vn -0.634400 -0.000000 -0.773000
vn -0.773000 -0.000000 -0.634400
vn -0.881900 -0.000000 -0.471400
vn -0.956900 -0.000000 -0.290300
vn -0.995200 -0.000000 -0.098000
vn -0.995200 0.000000 0.098000
vn -0.956900 0.000000 0.290300
vn -0.881900 0.000000 0.471400
vn -0.773000 0.000000 0.634400
vn -0.634400 0.000000 0.773000
vn -0.471400 0.000000 0.881900
vn -0.290300 0.000000 0.956900
vn -0.098000 0.000000 0.995200
vn 0.098000 0.000000 0.995200
vn 0.290300 0.000000 0.956900
vn 0.471400 0.000000 0.881900
vn 0.634400 0.000000 0.773000
vn 0.773000 0.000000 0.634400
vn 0.881900 0.000000 0.471400
vn 0.956900 0.000000 0.290300
vn 0.995200 0.000000 0.098000
vn 0.995200 -0.000000 -0.098000
vn 0.956900 -0.000000 -0.290300
vn 0.881900 -0.000000 -0.471400
vn 0.773000 -0.000000 -0.634400
vn 0.634400 -0.000000 -0.773000
vn 0.471400 -0.000000 -0.881900
vn -0.000000 1.000000 0.000000
vn 0.098000 -0.000000 -0.995200
vn 0.290300 -0.000000 -0.956900
vn 0.000000 -1.000000 0.000000
vn -0.000000 0.098000 -0.995200
vn -0.000000 0.290300 -0.956900
vn -0.000000 0.471400 -0.881900
vn -0.000000 0.634400 -0.773000
vn -0.000000 0.773000 -0.634400
vn -0.000000 0.881900 -0.471400
vn -0.000000 0.956900 -0.290300
vn -0.000000 0.995200 -0.098000
vn -0.000000 0.995200 0.098000
vn -0.000000 0.956900 0.290300
vn -0.000000 0.881900 0.471400
vn -0.000000 0.773000 0.634400
vn 0.000000 0.634400 0.773000
vn 0.000000 0.471400 0.881900
vn 0.000000 0.290300 0.956900
vn 0.000000 0.098000 0.995200
vn 0.000000 -0.098000 0.995200
vn 0.000000 -0.290300 0.956900
vn 0.000000 -0.471400 0.881900
vn 0.000000 -0.634400 0.773000
vn 0.000000 -0.773000 0.634400
vn 0.000000 -0.881900 0.471400
vn 0.000000 -0.956900 0.290300
vn 0.000000 -0.995200 0.098000
vn 0.000000 -0.995200 -0.098000
vn 0.000000 -0.956900 -0.290300
vn 0.000000 -0.881900 -0.471400
vn 0.000000 -0.773000 -0.634400
vn 0.000000 -0.634400 -0.773000
vn -0.000000 -0.471400 -0.881900
vn 1.000000 -0.000000 0.000000
vn -0.000000 -0.098000 -0.995200
vn -0.000000 -0.290300 -0.956900
vn -1.000000 -0.000000 0.000000
s off
f 1//1 3//1 4//1 2//1
f 3//2 5//2 6//2 4//2
f 5//3 7//3 8//3 6//3
f 7//4 9//4 10//4 8//4
f 9//5 11//5 12//5 10//5
f 11//6 13//6 14//6 12//6
f 13//7 15//7 16//7 14//7
f 15//8 17//8 18//8 16//8
f 17//9 19//9 20//9 18//9
f 19//10 21//10 22//10 20//10
f 21//11 23//11 24//11 22//11
f 23//12 25//12 26//12 24//12
f 25//13 27//13 28//13 26//13
f 27//14 29//14 30//14 28//14
f 29//15 31//15 32//15 30//15
f 31//16 33//16 34//16 32//16
f 33//17 35//17 36//17 34//17
f 35//18 37//18 38//18 36//18
f 37//19 39//19 40//19 38//19
f 39//20 41//20 42//20 40//20
f 41//21 43//21 44//21 42//21
f 43//22 45//22 46//22 44//22
f 45//23 47//23 48//23 46//23
f 47//24 49//24 50//24 48//24
f 49//25 51//25 52//25 50//25
f 51//26 53//26 54//26 52//26
f 53//27 55//27 56//27 54//27
f 55//28 57//28 58//28 56//28
f 57//29 59//29 60//29 58//29
f 59//30 61//30 62//30 60//30
f 4//31 6//31 8//31 10//31 12//31 14//31 16//31 18//31 20//31 22//31 24//31 26//31 28//31 30//31 32//31 34//31 36//31 38//31 40//31 42//31 44//31 46//31 48//31 50//31 52//31 54//31 56//31 58//31 60//31 62//31 64//31 2//31
f 63//32 1//32 2//32 64//32
f 61//33 63//33 64//33 62//33
f 1//34 63//34 61//34 59//34 57//34 55//34 53//34 51//34 49//34 47//34 45//34 43//34 41//34 39//34 37//34 35//34 33//34 31//34 29//34 27//34 25//34 23//34 21//34 19//34 17//34 15//34 13//34 11//34 9//34 7//34 5//34 3//34
f 65//35 67//35 68//35 66//35
f 67//36 69//36 70//36 68//36
f 69//37 71//37 72//37 70//37
f 71//38 73//38 74//38 72//38
f 73//39 75//39 76//39 74//39
f 75//40 77//40 78//40 76//40
f 77//41 79//41 80//41 78//41
f 79//42 81//42 82//42 80//42
f 81//43 83//43 84//43 82//43
f 83//44 85//44 86//44 84//44
f 85//45 87//45 88//45 86//45
f 87//46 89//46 90//46 88//46
f 89//47 91//47 92//47 90//47
f 91//48 93//48 94//48 92//48
f 93//49 95//49 96//49 94//49
f 95//50 97//50 98//50 96//50
f 97//51 99//51 100//51 98//51
f 99//52 101//52 102//52 100//52
f 101//53 103//53 104//53 102//53
f 103//54 105//54 106//54 104//54
f 105//55 107//55 108//55 106//55
f 107//56 109//56 110//56 108//56
f 109//57 111//57 112//57 110//57
f 111//58 113//58 114//58 112//58
f 113//59 115//59 116//59 114//59
f 115//60 117//60 118//60 116//60
f 117//61 119//61 120//61 118//61
f 119//62 121//62 122//62 120//62
f 121//63 123//63 124//63 122//63
f 123//64 125//64 126//64 124//64
f 68//65 70//65 72//65 74//65 76//65 78//65 80//65 82//65 84//65 86//65 88//65 90//65 92//65 94//65 96//65 98//65 100//65 102//65 104//65 106//65 108//65 110//65 112//65 114//65 116//65 118//65 120//65 122//65 124//65 126//65 128//65 66//65
f 127//66 65//66 66//66 128//66
f 125//67 127//67 128//67 126//67
f 65//68 127//68 125//68 123//68 121//68 119//68 117//68 115//68 113//68 111//68 109//68 107//68 105//68 103//68 101//68 99//68 97//68 95//68 93//68 91//68 89//68 87//68 85//68 83//68 81//68 79//68 77//68 75//68 73//68 71//68 69//68 67//68
f 129//69 131//69 132//69 130//69
f 131//70 133//70 134//70 132//70
f 133//71 135//71 136//71 134//71
f 135//72 137//72 138//72 136//72
f 137//73 139//73 140//73 138//73
f 139//74 141//74 142//74 140//74
f 141//75 143//75 144//75 142//75
f 143//76 145//76 146//76 144//76
f 145//77 147//77 148//77 146//77
f 147//78 149//78 150//78 148//78
f 149//79 151//79 152//79 150//79
f 151//80 153//80 154//80 152//80
f 153//81 155//81 156//81 154//81
f 155//82 157//82 158//82 156//82
f 157//83 159//83 160//83 158//83
f 159//84 161//84 162//84 160//84
f 161//85 163//85 164//85 162//85
f 163//86 165//86 166//86 164//86
f 165//87 167//87 168//87 166//87
f 167//88 169//88 170//88 168//88
f 169//89 171//89 172//89 170//89
f 171//90 173//90 174//90 172//90
f 173//91 175//91 176//91 174//91
f 175//92 177//92 178//92 176//92
f 177//93 179//93 180//93 178//93
f 179//94 181//94 182//94 180//94
f 181//95 183//95 184//95 182//95
f 183//96 185//96 186//96 184//96
f 185//97 187//97 188//97 186//97
f 187//98 189//98 190//98 188//98
f 132//99 134//99 136//99 138//99 140//99 142//99 144//99 146//99 148//99 150//99 152//99 154//99 156//99 158//99 160//99 162//99 164//99 166//99 168//99 170//99 172//99 174//99 176//99 178//99 180//99 182//99 184//99 186//99 188//99 190//99 192//99 130//99
f 191//100 129//100 130//100 192//100
f 189//101 191//101 192//101 190//101
f 129//102 191//102 189//102 187//102 185//102 183//102 181//102 179//102 177//102 175//102 173//102 171//102 169//102 167//102 165//102 163//102 161//102 159//102 157//102 155//102 153//102 151//102 149//102 147//102 145//102 143//102 141//102 139//102 137//102 135//102 133//102 131//102
